/* XPM */
static char * button_exit_hover_xpm[] = {
"80 17 20 1",
" 	c #00000000",
".	c #1C2D14",
"+	c #A8B9A4",
"@	c #7C9E72",
"#	c #B1BFAD",
"$	c #A4D06A",
"%	c #AED581",
"&	c #88AF6A",
"*	c #B1F2A9",
"=	c #BAF3B3",
"-	c #55764C",
";	c #629954",
">	c #7BA572",
",	c #ACEEA8",
"'	c #B5EFB1",
")	c #345231",
"!	c #8ACB62",
"~	c #588350",
"{	c #BBDAAC",
"]	c #B3D7A2",
"    ........................................................................    ",
"   .+@@@@@@@@@@@@#####@@@@@#@#@@@@@@@@@@@#####@@@@#@@@@@@@#@@#####@@@@@@@@#@.   ",
"  .@$$$$$$$$$$$$%%%%%$$$$$%$%$$$$$$$$$$$%%%%%$$$$%$$$$$$$%$$%%%%%$$$$$$$$%$$@.  ",
" .@$$$$$$$$$$$$%%%%%$$$$$%$%$$$$$$$$$$$%%%%%$$$$%$$$$$$$%$$%%%%%$$$$$$$$%$$$$@. ",
".&$$$$$$$$$$$$%%%%%$$$$$%$%$$****$*$$$=%===**$*=***$$$$%$$%%%%%$$$$$$$$%$$$$$$&.",
".&$$$$$$$$$$$%%%%%$$$$$%$%$$*$$$$$*$$%=%%%*$$$%$*$$$$$%$$%%%%%$$$$$$$$%$$$$$$$&.",
".&$$$$$$$$$$%%%%%$$$$$%$%$$$****$$$*%=%%%$*$$%$$*$$$$%$$%%%%%$$$$$$$$%$$$$$$$$&.",
".-;;;;;;;;;>>>>>;;;;;>;>;;;;,;;;;;;>'>>>;;,;>;;;,;;;>;;>>>>>;;;;;;;;>;;;;;;;;;-.",
".-;;;;;;;;>>>>>;;;;;>;>;;;;;,;;;;;>'>'>;;;,>;;;;,;;>;;>>>>>;;;;;;;;>;;;;;;;;;;-.",
".-;;;;;;;>>>>>;;;;;>;>;;;;;;,;;;;>'>>>,;;;';;;;;,;>;;>>>>>;;;;;;;;>;;;;;;;;;;;-.",
".)!;;;;;>>>>>;;;;;>;>;;;;;;;;,,,'>'>>;,;,',,,;;;,>;;>>>>>;;;;;;;;>;;;;;;;;;;;!).",
".))!;;;>>>>>;;;;;>;>;;;;;;;;;;;>>>>>;;;;>;;;;;;;>;;>>>>>;;;;;;;;>;;;;;;;;;;;!)).",
".~))!!{{{{{!!!!!{!{!!!!!!!!!!!{{{{{!!!!{!!!!!!!{!!{{{{{!!!!!!!!{!!!!!!!!!!!]))~.",
" .~))))))))))))))))))))))))))))))))))))))))))))))))))))))))))))))))))))))))))~. ",
"  .~))))))))))))))))))))))))))))))))))))))))))))))))))))))))))))))))))))))))~.  ",
"   .~~~~~~~~~~~~~~~~~~~~~~~~~~~~~~~~~~~~~~~~~~~~~~~~~~~~~~~~~~~~~~~~~~~~~~~~.   ",
"    ........................................................................    "};
