/* XPM */
static char * C:\Users\ivan\Documents\buttom_rigth_xpm[] = {
"17 17 19 1",
" 	c #00000000",
".	c #20271F",
"+	c #AFB6AF",
"@	c #8B988B",
"#	c #B7BDB7",
"$	c #A5B69A",
"%	c #AFBEA6",
"&	c #526F4B",
"*	c #91A08C",
"=	c #616E61",
"-	c #879987",
";	c #738A73",
">	c #456641",
",	c #697E67",
"'	c #404B41",
")	c #98AF92",
"!	c #687969",
"~	c #C1CBBE",
"{	c #BAC6B7",
"    .........    ",
"   .+@@@#@@@@.   ",
"  .@$$$%$$$$$@.  ",
" .@$$$%$$&&$$$@. ",
".*$$$%$$&&&$$$%#.",
".*$$%$$&&&&$$%%#.",
".*$%$$&&&&&$%%%#.",
".=-;;;>>>>>----=.",
".=;;;;;>>>,---;=.",
".=;;;;;;,,,--;;=.",
".');;;;;-,,-;;)'.",
".'');;;----;;)''.",
".!''))~~~~)){''!.",
" .!'''''''''''!. ",
"  .!'''''''''!.  ",
"   .!!!!!!!!!.   ",
"    .........    "};
