/* XPM */
static char * = {
"32 32 81 1",
" 	c None",
".	c #FFFFFF",
"+	c #FEFEFE",
"@	c #FAFAFA",
"#	c #E7E7E7",
"$	c #D9D9D9",
"%	c #FBFBFB",
"&	c #D2D2D2",
"*	c #9D9D9D",
"=	c #8F8F8F",
"-	c #D7D7D7",
";	c #949494",
">	c #848484",
",	c #838383",
"'	c #999999",
")	c #F9F9F9",
"!	c #D4D4D4",
"~	c #878787",
"{	c #CBCBCB",
"]	c #E5E5E5",
"^	c #BDBDBD",
"/	c #868686",
"(	c #BFBFBF",
"_	c #FCFCFC",
":	c #DADADA",
"<	c #A4A4A4",
"[	c #898989",
"}	c #858585",
"|	c #BEBEBE",
"1	c #F4F4F4",
"2	c #9C9C9C",
"3	c #909090",
"4	c #8D8D8D",
"5	c #C3C3C3",
"6	c #A9A9A9",
"7	c #A2A2A2",
"8	c #BABABA",
"9	c #8B8B8B",
"0	c #CDCDCD",
"a	c #DEDEDE",
"b	c #9A9A9A",
"c	c #A7A7A7",
"d	c #E1E1E1",
"e	c #929292",
"f	c #FDFDFD",
"g	c #C4C4C4",
"h	c #B1B1B1",
"i	c #B9B9B9",
"j	c #E9E9E9",
"k	c #CFCFCF",
"l	c #8C8C8C",
"m	c #919191",
"n	c #EEEEEE",
"o	c #A1A1A1",
"p	c #AFAFAF",
"q	c #F7F7F7",
"r	c #EDEDED",
"s	c #9F9F9F",
"t	c #AAAAAA",
"u	c #D6D6D6",
"v	c #8A8A8A",
"w	c #CCCCCC",
"x	c #F3F3F3",
"y	c #EAEAEA",
"z	c #F2F2F2",
"A	c #B3B3B3",
"B	c #E3E3E3",
"C	c #939393",
"D	c #C7C7C7",
"E	c #DDDDDD",
"F	c #A3A3A3",
"G	c #F8F8F8",
"H	c #ABABAB",
"I	c #B2B2B2",
"J	c #F1F1F1",
"K	c #BCBCBC",
"L	c #A5A5A5",
"M	c #B7B7B7",
"N	c #C5C5C5",
"O	c #F6F6F6",
"P	c #D8D8D8",
"................................",
"................................",
"..................+.............",
"................@#$#@...........",
"...............%&*=*&%..........",
"..............%-;>,>'#..........",
".............)!'>,,,~{+.........",
"...........@]^;>,,,,/(+.........",
".........._:<[>,>},,/|+.........",
"........+1&2/,>/34>,~5+.........",
".......)$64>>>/783,,90+.........",
".......ab>,,>~cd{9,>e$+.........",
"......fg~,,>9h])i/,>*j..........",
"......+kl>>m5n_no>,>pq..........",
".......r^st-).+u=,,vwf..........",
".......fxyz_..)A},>'#...........",
".........+....BC,,>tq...........",
".............+D~,,/(f...........",
".............+i},,=E............",
".............fh>,>F1............",
".............GH>,>If............",
".............J<>,}i+............",
".............n7>,/K+............",
".............JL>,}Mf............",
".............Gp>,>h)............",
".............fNv>/iO............",
"..............#p3o$@............",
"..............%yPBO+............",
"................+...............",
"................................",
"................................",
"................................"};
