/* XPM */
static char * = {
"32 32 123 2",
"  	c None",
". 	c #DACCAE",
"+ 	c #D9CCAE",
"@ 	c #D9CBAD",
"# 	c #D4C7AB",
"$ 	c #CABEA5",
"% 	c #BFB59F",
"& 	c #BAB19D",
"* 	c #B9B09D",
"= 	c #BBB19D",
"- 	c #C2B7A1",
"; 	c #CEC2A8",
"> 	c #D8CAAD",
", 	c #CDC1A7",
"' 	c #A49E92",
") 	c #95918B",
"! 	c #8D8B88",
"~ 	c #8B8986",
"{ 	c #8A8986",
"] 	c #8B8987",
"^ 	c #8F8C88",
"/ 	c #9A968D",
"( 	c #B3AB99",
"_ 	c #CDC0A7",
": 	c #B3AB9A",
"< 	c #99958D",
"[ 	c #858584",
"} 	c #848483",
"| 	c #838383",
"1 	c #848484",
"2 	c #888785",
"3 	c #9D988F",
"4 	c #C5BAA3",
"5 	c #98948C",
"6 	c #858484",
"7 	c #9C978E",
"8 	c #CBBFA6",
"9 	c #D9CBAE",
"0 	c #D0C4A9",
"a 	c #B5AC9A",
"b 	c #97938C",
"c 	c #878785",
"d 	c #8A8886",
"e 	c #898886",
"f 	c #868584",
"g 	c #878685",
"h 	c #AEA697",
"i 	c #B4AC9A",
"j 	c #8B8A87",
"k 	c #92908A",
"l 	c #A39D91",
"m 	c #B2AA99",
"n 	c #B9AF9C",
"o 	c #B8AF9C",
"p 	c #A8A194",
"q 	c #CFC2A8",
"r 	c #A09B90",
"s 	c #97948C",
"t 	c #B1A998",
"u 	c #C8BCA4",
"v 	c #D5C8AB",
"w 	c #AAA395",
"x 	c #868685",
"y 	c #D2C5A9",
"z 	c #A9A294",
"A 	c #93908A",
"B 	c #B7AE9B",
"C 	c #8C8A87",
"D 	c #BCB29E",
"E 	c #D7CAAC",
"F 	c #C5BAA2",
"G 	c #A59F92",
"H 	c #99948D",
"I 	c #A7A194",
"J 	c #C6BAA3",
"K 	c #D2C5AA",
"L 	c #A59F93",
"M 	c #848383",
"N 	c #8F8D88",
"O 	c #D7C9AC",
"P 	c #D0C3A8",
"Q 	c #D8CBAD",
"R 	c #9E998F",
"S 	c #B6AD9B",
"T 	c #BEB49F",
"U 	c #98948D",
"V 	c #8E8C88",
"W 	c #B7AE9C",
"X 	c #D6C9AC",
"Y 	c #CEC1A7",
"Z 	c #928F8A",
"` 	c #BAB09D",
" .	c #C6BBA3",
"..	c #A39D92",
"+.	c #9C988E",
"@.	c #C1B6A0",
"#.	c #94918B",
"$.	c #AEA797",
"%.	c #A39E92",
"&.	c #D6C8AC",
"*.	c #8C8B87",
"=.	c #D4C6AA",
"-.	c #9F998F",
";.	c #C4B9A2",
">.	c #918E89",
",.	c #9B968E",
"'.	c #A09A90",
").	c #A19B90",
"!.	c #A19C91",
"~.	c #A7A193",
"{.	c #ABA495",
"].	c #C9BDA5",
"^.	c #C1B7A1",
"/.	c #908D89",
"(.	c #CABFA5",
"_.	c #BDB39E",
":.	c #95928B",
"<.	c #BBB29E",
"[.	c #ACA596",
"}.	c #9D988E",
"|.	c #96938C",
"1.	c #D3C6AA",
"2.	c #CCC0A6",
". . . . . . . . . . . . . . . . . . . . . . . . . . . . . . . . ",
". . . . . . . . . . . . . . . . . . . . . . . . . . . . . . . . ",
". . . . . . . . . . . . . . + + + + . . . . . . . . . . . . . . ",
". . . . . . . . . . . @ # $ % & * = - ; > . . . . . . . . . . . ",
". . . . . . . . . > , * ' ) ! ~ { ] ^ / ( , > . . . . . . . . . ",
". . . . . . . > _ : < { [ } | | | | | 1 2 3 4 > . . . . . . . . ",
". . . . . > _ ( 5 2 1 | | | | | | | | | | 6 7 8 9 . . . . . . . ",
". . . @ 0 a b 2 1 | | | } 6 c d { e f } | | g h # . . . . . . . ",
". . . # i j 1 | | | 1 c k l m n * o p j 1 | 1 b $ . . . . . . . ",
". . . q r 1 | | 1 2 s t u # @ + + + v w x | | ! % + . . . . . . ",
". . . y z g 1 f A ( _ > . . . . . . + B e | | C D + . . . . . . ",
". . . E F G H I J > . . . . . . . 9 K L f | M N - . . . . . . . ",
". . . . O P 8 K Q . . . . . . . > $ z d } | 1 R ; . . . . . . . ",
". . . . . . . . . . . . . . > , S < g } | 1 ^ T > . . . . . . . ",
". . . . . . . . . . . @ # u t U d 1 | | 1 V W X . . . . . . . . ",
". . . . . . . . . > Y * ' k c 1 | | | [ Z ` X . . . . . . . . . ",
". . . . . . . . >  ...C [ } | | | 1 2 +.@.O . . . . . . . . . . ",
". . . . . . . > F / f M | | | 1 2 #.$.$ > . . . . . . . . . . . ",
". . . . . . . , 3 6 | | } [ { U t u # 9 . . . . . . . . . . . . ",
". . . . . . @ S 2 | | 1 V %.* , > . . . . . . . . . . . . . . . ",
". . . . . . &.%.1 | | *.& # @ . . . . . . . . . . . . . . . . . ",
". . . . . . =.-.1 | 1 A ;.# > @ @ @ 9 9 9 9 9 9 . . . . . . . . ",
". . . . . . &.p 6 | | f >.,.'.).!...~.z w w {.i ].O . . . . . . ",
". . . . . . 9 ^./.} | | M } 1 1 1 1 1 [ [ [ [ e !.(.. . . . . . ",
". . . . . . . X o ^ 1 | | | | | | | | | | | | M C _.9 . . . . . ",
". . . . . . . . X T 7 ~ [ 1 1 1 1 } } } } } } 6 :.4 . . . . . . ",
". . . . . . . . . > , <.[.' !.).'.}.< |.:.:.b !.D 1.. . . . . . ",
". . . . . . . . . . . + 9 @ @ @ > v P _ 2.2._ P &.9 . . . . . . ",
". . . . . . . . . . . . . . . . . . . . . . . . . . . . . . . . ",
". . . . . . . . . . . . . . . . . . . . . . . . . . . . . . . . ",
". . . . . . . . . . . . . . . . . . . . . . . . . . . . . . . . ",
". . . . . . . . . . . . . . . . . . . . . . . . . . . . . . . . "};
