/* XPM */
static char * = {
"32 32 68 1",
" 	c None",
".	c #B09F76",
"+	c #AC9D77",
"@	c #A79979",
"#	c #A1957B",
"$	c #9E947C",
"%	c #9E937C",
"&	c #9F947C",
"*	c #A2967B",
"=	c #A99B78",
"-	c #AE9E77",
";	c #AD9D77",
">	c #938D7F",
",	c #8B8882",
"'	c #888682",
")	c #878583",
"!	c #868583",
"~	c #8D8981",
"{	c #968E7F",
"]	c #A4987A",
"^	c #978F7E",
"/	c #848483",
"(	c #838383",
"_	c #A4977A",
":	c #A89A79",
"<	c #948D7F",
"[	c #858583",
"}	c #848383",
"|	c #958E7F",
"1	c #8A8782",
"2	c #858483",
"3	c #8C8881",
"4	c #A99A79",
"5	c #A5987A",
"6	c #8E8A81",
"7	c #928C80",
"8	c #9B917D",
"9	c #9D937C",
"0	c #9D937D",
"a	c #908B80",
"b	c #A0947C",
"c	c #AC9C78",
"d	c #918B80",
"e	c #AB9C78",
"f	c #AE9D77",
"g	c #9B927D",
"h	c #AF9F76",
"i	c #898782",
"j	c #878682",
"k	c #8F8A81",
"l	c #8B8881",
"m	c #AF9E76",
"n	c #898682",
"o	c #A0957C",
"p	c #968F7E",
"q	c #A6987A",
"r	c #938C80",
"s	c #8F8A80",
"t	c #948E7F",
"u	c #99907E",
"v	c #AA9B78",
"w	c #A89979",
"x	c #98907E",
"y	c #99917E",
"z	c #8E8981",
"A	c #918C80",
"B	c #9A917D",
"C	c #9C927D",
"................................",
"................................",
"................................",
"........+@#$%%%%%&*=-...........",
"......;*>,')!!!!!)'~{]-.........",
"....-@^'/(((((((((((/~_.........",
"....:<[}(((((((((((((/|-........",
"....*1}(}/2!!!!!!!/(((34........",
"....56//'789%%%%%0a/(()b........",
"....c$dd%e.......fg!(([g........",
"....h;44;h.....e*|i/((jb........",
".............-*k!/(((/a4........",
".............5l}((((/,*m........",
"............h$2(((((n&-.........",
".............51(((((!g-.........",
".............-&32/((}nom........",
"..............m4%d)}(/k4........",
"................hcp2(()&........",
"..................q1((/^........",
"..................+6((/rh.......",
"..................-s((}7h.......",
"..................:,((/th.......",
".................-u2((!9........",
".......mvqw+mhm+qx'}(/~:........",
".......vyz36dAd612/(}'%m........",
".......*1/((}}}((((/jBc.........",
".......*n}((((((((/nC+..........",
".......vp'//}}}//)ko-...........",
".......m=&^rAAAr^&4m............",
"...........hhhhh................",
"................................",
"................................"};
