/* XPM */
static char * = {
"32 32 102 2",
"  	c None",
". 	c #56451C",
"+ 	c #574620",
"@ 	c #57461F",
"# 	c #56461F",
"$ 	c #56451D",
"% 	c #594929",
"& 	c #655B4B",
"* 	c #716C63",
"= 	c #76726C",
"- 	c #76736D",
"; 	c #747069",
"> 	c #716B63",
", 	c #6F695F",
"' 	c #706A60",
") 	c #675F50",
"! 	c #5C4F35",
"~ 	c #594A2B",
"{ 	c #6D675D",
"] 	c #7F7D7B",
"^ 	c #838383",
"/ 	c #848484",
"( 	c #848483",
"_ 	c #838282",
": 	c #838382",
"< 	c #838281",
"[ 	c #7E7D7A",
"} 	c #6E675D",
"| 	c #5B4D30",
"1 	c #685F51",
"2 	c #807F7E",
"3 	c #858584",
"4 	c #858585",
"5 	c #7A7874",
"6 	c #615541",
"7 	c #574721",
"8 	c #75716B",
"9 	c #797772",
"0 	c #858484",
"a 	c #7F7E7C",
"b 	c #828180",
"c 	c #797672",
"d 	c #665D4D",
"e 	c #625744",
"f 	c #635846",
"g 	c #665D4E",
"h 	c #6B6458",
"i 	c #6E685E",
"j 	c #807F7D",
"k 	c #655B4A",
"l 	c #56461E",
"m 	c #645B4A",
"n 	c #78746F",
"o 	c #594A29",
"p 	c #5C4E32",
"q 	c #7B7874",
"r 	c #818180",
"s 	c #6F685F",
"t 	c #6B6357",
"u 	c #645A48",
"v 	c #574723",
"w 	c #574722",
"x 	c #706A61",
"y 	c #848383",
"z 	c #828281",
"A 	c #7C7A76",
"B 	c #76726D",
"C 	c #615642",
"D 	c #7D7B78",
"E 	c #807E7C",
"F 	c #787570",
"G 	c #686052",
"H 	c #584824",
"I 	c #675E4F",
"J 	c #696154",
"K 	c #797671",
"L 	c #5A4C2E",
"M 	c #716C64",
"N 	c #6C6459",
"O 	c #75716A",
"P 	c #7C7976",
"Q 	c #60543F",
"R 	c #77736D",
"S 	c #81807F",
"T 	c #6A6255",
"U 	c #594A2A",
"V 	c #5C4E33",
"W 	c #5A4B2D",
"X 	c #6C665B",
"Y 	c #706B62",
"Z 	c #7A7773",
"` 	c #706A62",
" .	c #746F68",
"..	c #7E7D7B",
"+.	c #6C655A",
"@.	c #635947",
"#.	c #7B7875",
"$.	c #807E7D",
"%.	c #594928",
"&.	c #7B7975",
"*.	c #696155",
"=.	c #6D665C",
". . . . . . . . . . . . . . . . . . . . . . . . . . . . . . . . ",
". . . . . . . . . . . . . . . . . . . . . . . . . . . . . . . . ",
". . . . . . . . . . . . . . . . . . . . . . . . . . . . . . . . ",
". . . . . . . . . . . . . . . . . . . . . . . . . . . . . . . . ",
". . . . . . . . . . . . . . . . . . . . . . . . . . . . . . . . ",
". . . . . . . . . . + + + + + + + + @ # # + $ . . . . . . . . . ",
". . . . . . . . % & * = - - - - = ; > , ' , ) ! + . . . . . . . ",
". . . . . . . ~ { ] ^ / / / / / / ( ^ _ : < [ } | . . . . . . . ",
". . . . . . . 1 2 3 4 4 4 4 4 4 4 4 4 4 4 4 / 5 6 $ . . . . . . ",
". . . . . . 7 8 / 4 4 4 4 4 4 4 4 4 4 4 4 4 / 5 6 $ . . . . . . ",
". . . . . . 7 9 0 4 4 _ ] ] ] ] a 2 b < : < [ } | . . . . . . . ",
". . . . . . 7 c / 4 4 [ d e e e f g h i ' , ) ! + . . . . . . . ",
". . . . . . + 8 / 4 4 j k l $ $ $ $ l # # + $ . . . . . . . . . ",
". . . . . . # i _ 4 4 _ i # . . . . . . . . . . . . . . . . . . ",
". . . . . . $ m j 4 4 / n o # # l $ . . . . . . . . . . . . . . ",
". . . . . . . p q / 4 4 r ; s } t u p v # $ . . . . . . . . . . ",
". . . . . . . w x : 4 4 / y _ z b a A B i m p + . . . . . . . . ",
". . . . . . . . C D / 4 4 4 4 4 4 4 0 / _ E F G ~ . . . . . . . ",
". . . . . . . . H h 2 / 4 4 4 4 4 4 4 4 4 4 / [ I . . . . . . . ",
". . . . . . . . . ~ J K a b z _ ^ / 0 4 4 4 4 / K L . . . . . . ",
". . . . . . . . . . + p u t } s M - A j y 4 4 4 b N H . . . . . ",
". . . . . . . . . . . . $ l # # @ v p m O z 3 4 / P Q . . . . . ",
". . . . . . . . . . . . $ . . . . . . $ L R ( 4 4 S T l . . . . ",
". . . . . . . . . . @ U V W v # $ . . . l X z 4 4 : Y @ . . . . ",
". . . . . . . . . . V N n Z B i m p H H V ` z 4 4 (  .+ . . . . ",
". . . . . . . . . $ I ../ / / _ j D q q D S / 4 4 ^ > + . . . . ",
". . . . . . . . . + +.z 4 4 4 4 4 4 3 3 4 4 4 4 / ] & . . . . . ",
". . . . . . . . . . @.#.^ / 4 4 4 4 4 4 4 4 4 / $.+.% . . . . . ",
". . . . . . . . . . %.&  .P j _ / / 3 3 / / z &.*.% . . . . . . ",
". . . . . . . . . . . . v p m i 8 c Z Z c 8 =.6 H . . . . . . . ",
". . . . . . . . . . . . . . $ # + 7 7 7 7 + l . . . . . . . . . ",
". . . . . . . . . . . . . . . . . . . . . . . . . . . . . . . . "};
