/* XPM */
static char * = {
"32 32 124 2",
"  	c None",
". 	c #2C2107",
"+ 	c #2D2209",
"@ 	c #2E230D",
"# 	c #2E2410",
"$ 	c #2F2511",
"% 	c #2D230C",
"& 	c #302613",
"* 	c #3B352A",
"= 	c #4F4B46",
"- 	c #615F5C",
"; 	c #6D6C6A",
"> 	c #727170",
", 	c #706F6D",
"' 	c #656361",
") 	c #56534E",
"! 	c #413B32",
"~ 	c #302715",
"{ 	c #332A1A",
"] 	c #48433C",
"^ 	c #737271",
"/ 	c #7D7C7C",
"( 	c #828282",
"_ 	c #848484",
": 	c #7A7978",
"< 	c #605E5B",
"[ 	c #3F382F",
"} 	c #312817",
"| 	c #48433D",
"1 	c #676563",
"2 	c #7A7979",
"3 	c #828181",
"4 	c #858585",
"5 	c #838382",
"6 	c #6F6E6D",
"7 	c #4A453F",
"8 	c #2D230B",
"9 	c #312818",
"0 	c #524F4A",
"a 	c #747472",
"b 	c #858584",
"c 	c #838383",
"d 	c #7F7E7E",
"e 	c #686664",
"f 	c #433E36",
"g 	c #2C2108",
"h 	c #362E21",
"i 	c #5E5C59",
"j 	c #7D7D7C",
"k 	c #7E7D7D",
"l 	c #787877",
"m 	c #747371",
"n 	c #63615E",
"o 	c #4C4842",
"p 	c #352D1F",
"q 	c #2E240F",
"r 	c #56534F",
"s 	c #7E7E7E",
"t 	c #3C362C",
"u 	c #393226",
"v 	c #322919",
"w 	c #3C352A",
"x 	c #71706F",
"y 	c #7F7F7F",
"z 	c #696866",
"A 	c #504C47",
"B 	c #7D7D7D",
"C 	c #828281",
"D 	c #332A1B",
"E 	c #646260",
"F 	c #6F6D6C",
"G 	c #3C362B",
"H 	c #312816",
"I 	c #62605D",
"J 	c #605D5A",
"K 	c #5B5855",
"L 	c #4D4A44",
"M 	c #3B3429",
"N 	c #393227",
"O 	c #777675",
"P 	c #818181",
"Q 	c #80807F",
"R 	c #7B7A7A",
"S 	c #6B6A68",
"T 	c #443E37",
"U 	c #757473",
"V 	c #838282",
"W 	c #595753",
"X 	c #342C1E",
"Y 	c #7C7C7B",
"Z 	c #585551",
"` 	c #777776",
" .	c #5F5D5A",
"..	c #625F5D",
"+.	c #6A6967",
"@.	c #7C7B7B",
"#.	c #777676",
"$.	c #48443D",
"%.	c #747372",
"&.	c #3D362C",
"*.	c #7E7E7D",
"=.	c #332B1B",
"-.	c #575450",
";.	c #797877",
">.	c #46413A",
",.	c #5F5C59",
"'.	c #6C6B69",
").	c #2D230D",
"!.	c #3B342A",
"~.	c #2D220A",
"{.	c #5C5955",
"].	c #4B4741",
"^.	c #6E6D6B",
"/.	c #808080",
"(.	c #7C7C7C",
"_.	c #767574",
":.	c #464139",
"<.	c #595652",
"[.	c #848483",
"}.	c #818180",
"|.	c #4E4A44",
"1.	c #666461",
"2.	c #6B6967",
"3.	c #47433C",
". . . . . . . . . . . . . . . . . . . . . . . . . . . . . . . . ",
". . . . . . . . . . . . . . . . . . . . . . . . . . . . . . . . ",
". . . . . . . . . . . . . . . . . . . . . . . . . . . . . . . . ",
". . . . . . . . . . . . . . . + @ # $ $ % % . . . . . . . . . . ",
". . . . . . . . . . . . . & * = - ; > , ' ) ! ~ . . . . . . . . ",
". . . . . . . . . . . { ] - ^ / ( _ _ _ ( : < [ . . . . . . . . ",
". . . . . . . . . } | 1 2 3 _ 4 4 4 4 4 _ 5 6 7 8 . . . . . . . ",
". . . . . . . . 9 0 a ( _ 4 4 4 4 4 b _ c d e f g . . . . . . . ",
". . . . . . . h i j _ 4 4 4 4 _ ( k l m ; n o p . . . . . . . . ",
". . . . . . q r s 4 4 4 _ c j ^ n = t h u u v 8 . . . . . . . . ",
". . . . . . w x _ 4 4 _ y z A * & + . . g g . . . . . . . . . . ",
". . . . . + A B 4 4 4 C n D + . . . . . . . . . . . . . . . . . ",
". . . . . @ E 5 4 4 c F G @ @ @ @ + . . . . . . . . . . . . . . ",
". . . . . H x _ 4 4 k I J - - < K L M q . . . . . . . . . . . . ",
". . . . . N O _ 4 _ d B P 3 3 P Q R S o } . . . . . . . . . . . ",
". . . . + T 2 4 4 _ 5 _ 4 4 4 4 4 _ ( U 0 } . . . . . . . . . . ",
". . . . + ] R 4 4 _ V _ 4 4 4 4 4 4 4 c : W X . . . . . . . . . ",
". . . . + T 2 4 4 _ / j P 3 3 ( c _ 4 4 _ Y Z } . . . . . . . . ",
". . . . . N ` b 4 _ O W  .- - ..+.@._ 4 4 _ #.$.. . . . . . . . ",
". . . . . H %._ 4 4 l &.@ @ @ @ { r : _ 4 4 ( 1 { . . . . . . . ",
". . . . . # ; _ 4 4 *.A + . . . . =.-.B _ 4 _ ;.>.. . . . . . . ",
". . . . . @ ,.P 4 4 c z D . . . . . { '.c 4 4 y Z ).. . . . . . ",
". . . . . . ] 2 _ 4 _ y n !.@ @ ~.+ q n ( 4 4 P  .@ . . . . . . ",
". . . . . . { 1 ( 4 4 _ C > - {.0 ].o ^.c 4 4 P  .@ . . . . . . ",
". . . . . . . | a _ 4 4 4 _ C /.s Y (.P _ 4 4 y Z ).. . . . . . ",
". . . . . . . } 0 j 4 4 4 4 4 4 4 4 4 4 4 4 _ _.:.. . . . . . . ",
". . . . . . . . 9 i s _ 4 4 4 4 4 4 4 4 4 _ Y <.} . . . . . . . ",
". . . . . . . . . h r x Y /.3 5 [._ _ c }._.Z X . . . . . . . . ",
". . . . . . . . . . q w |.K - 1.S ^.^.2.i 3.} . . . . . . . . . ",
". . . . . . . . . . . . + @ @ @ # # # # @ . . . . . . . . . . . ",
". . . . . . . . . . . . . . . . . . . . . . . . . . . . . . . . ",
". . . . . . . . . . . . . . . . . . . . . . . . . . . . . . . . "};
