/* XPM */
static char * C:\Users\ivan\Documents\ladrillos_xpm[] = {
"32 32 5 1",
" 	c #C04130",
".	c #972F26",
"+	c #9B7F7D",
"@	c #6E211C",
"#	c #DD8D78",
" .+@..     #     +   ..#       .",
"@@+@@@@@@@@@@@@@@+@@@@@@@@@@@@@@",
"++++++++++++++++++++++++++++++++",
"####### ###+######### ####+### #",
"   #       +   #      .   +  #. ",
"  .   .   .+@       .@  #.+    .",
" .@.    .@@+.@..       ..@+@.   ",
"@@@@@@@@@@@+@@@@@@@@@@@@@@+@@@@@",
"++++++++++++++++++++++++++++++++",
"######### ####+##############+##",
"  ..          +    #        #+# ",
".       @.  #.+ .@     .@   .+  ",
"..   .@     .@+   .  #.@.  .@+  ",
"@@@@@@@@@@@@@@+@@@@@@@@@@@@@@+@@",
"++++++++++++++++++++++++++++++++",
"#########+##############+##### #",
"   .     +#      .     .+      .",
"       #.+      .    . .+@.   . ",
"@.@    .@+ @.       .@.@+.@..   ",
"@@@@@@@@@+@@@@@@@@@@@@@@+@@@@@@@",
"++++++++++++++++++++++++++++++++",
"##+#### #########+########### ##",
" #+   .     #    +     .#       ",
"  +.     .      .+.#    .@     @",
"  +@.#    .     .+@.@.    .   ..",
"@@+@@@@@@@@@@@@@@+@@@@@@@@@@@@@@",
"++++++++++++++++++++++++++++++++",
"###### ####+## ###########+#####",
"     #.   .+ #            +    .",
" .@      .@+ .@      .  #.+   # ",
"   .    #.@+     @..    ..+@..  ",
"@@@@@@@@@@@+@@@@@@@@@@@@@@+@@@@@"};
