/* XPM */
static char * = {
"32 32 12 1",
" 	c None",
".	c #290C0C",
"+	c #BF782C",
"@	c #CC8F4E",
"#	c #B55C2A",
"$	c #7C92A3",
"%	c #7EA0AF",
"&	c #AEB9C2",
"*	c #B5C5CD",
"=	c #491515",
"-	c #A75223",
";	c #4F2718",
".+@@@++++++++###.$%&&&&&&&***&&&",
"=#++++++++++++#-=$%%&&&&&&&&&&&&",
"=#########------=$$%%%&&&&&%%%%$",
";-###-----------=$$$%%%%%%%%%%%$",
"=---------------=$$$$$$$$$$$$$$$",
"=---------------=$$$$$$$$$$$$$$$",
".---------------.$$$$$$$$$$$$$$$",
"..;;=.......===...==......==;;=.",
"++++###.+@@@@++++####=$&&&&&**&&",
"##-----=#+++++++#####=$%%&&&&&&&",
"-------=##########---=$$%%%%%%%%",
"-------=--######-----=$$$%%%%%%%",
"-------=-------------=$$$$$$$$$$",
"-------=-------------.$$$$$$$$$$",
"-------.-------------.$$$$$$$$$$",
"....==......===...........=;=...",
".#+@@@@+++++###-.$$$&&&&&&&&***&",
"=++++++++##---##.$$&&&&&&&&&&&&&",
"=-####--##------=$$%%%%%%&&&&&&&",
"=---------------=$$$%%%%%%%%%%$$",
"=---------------=$$$$$$$$$$$$$$$",
"=---------------=$$$$$$$$$$$$$$$",
".---------------.$$$$$$$$$$$$$$$",
"..==.....===;;.....==.....=;;;=.",
"-##----.+@@@@@@+++#--=$&&&&&**&&",
"++-----=#+++++++++++#=$%%&&&&&&&",
"####---;--####++++##-=$$%%%%%%%%",
"-------;---##--------=$$$%%%%%%%",
"-------=-------------=$$$$$$$$$$",
"-------=-------------.$$$$$$$$$$",
"-------.-------------.$$$$$$$$$$",
"..........==;;;...=;=.....=;=..."};
