/* XPM */
static char * = {
"32 32 12 1",
" 	c None",
".	c #AEB9C2",
"+	c #B5C5CD",
"@	c #7C92A3",
"#	c #290C0C",
"$	c #B55C2A",
"%	c #BF782C",
"&	c #CC8F4E",
"*	c #A75223",
"=	c #7EA0AF",
"-	c #491515",
";	c #4F2718",
".+++.........@@@#$$%&&&%%%%%$$$*",
"............==@@-$%%%%%%%%$*****",
"..........=====@-$$$$$$$$*******",
"==============@@-*$$$$$$$*******",
"@@@=======@@@@@@-*$$$$$$$*******",
"@@@@@@@@@@@@@@@@-***$$$*********",
"@@@@@@@@@@@@@@@@#***************",
"##;;-#######---###--######--;;-#",
".++......@-&&%%%%$$$$$$#%%&&&&%%",
".......==@-%%%%%$$$$$$$-$$$%%%%%",
"========@@-$$$$$$$*****;*$$$$$$$",
"@@====@@@@-$$$$$*******;********",
"@@@@@@@@@@-************;********",
"@@@@@@@@@@#************-********",
"@@@@@@@@@@#************#********",
"####--######---###########-;-###",
"..+++.......@@@@#%%&&&&%%%%$****",
".............@@@#$$%%%%%%%%%$$$$",
".......=====@@@@-**$$$$%%%$$$$$$",
"@============@@@-$$$$$**********",
"@@@@====@@@@@@@@-***************",
"@@@@@@@@@@@@@@@@-***************",
"@@@@@@@@@@@@@@@@#***************",
"##;;-######-;;#####--#####-;;;-#",
".++......@-&&&&%%%$****#*%&&%$$*",
".......==@-%%%%%%%%%$**-%%%%%%%%",
"========@@-$$$%%%%$$***;*$$$$$$$",
"@@====@@@@-$$**********;*$$$$$$$",
"@@@@@@@@@@-************-**$$$***",
"@@@@@@@@@@#************-********",
"@@@@@@@@@@#************#********",
"####--#####-;;;###-;-####-;;;--#"};
